<svg xmlns="http://www.w3.org/2000/svg" viewBox="0 0 24 24" width="24" height="24">
  <!-- United States Flag -->
  <path fill="#B22234" d="M0 0h24v24H0z"/>
  <path fill="#FFFFFF" d="M0 0h24v24H0z" opacity=".3"/>
  <path fill="#3C3B6E" d="M0 0h24v24H0z" opacity=".3"/>
  <path fill="#FFFFFF" d="M5.48 7.05L5 8.93l1.45.67-1.48.65.5 1.88 1.48-.65 1.47.65-.48-1.88L8 9.6l1.47-.66-1.47-.65-.5-1.88-1.48.66zm12.02 2.83l-1.48-.67-1.47.66.48 1.88L14 9.6l-1.48-.66.48-1.88 1.47.65 1.48-.65-.5 1.88 1.48.65 1.45-.67-.5-1.88zM12 2C6.48 2 2 6.48 2 12s4.48 10 10 10 10-4.48 10-10S17.52 2 12 2zm0 18c-4.41 0-8-3.59-8-8s3.59-8 8-8 8 3.59 8 8-3.59 8-8 8z"/>

  <!-- United Kingdom Flag -->
  <rect fill="#012169" width="24" height="4.8"/>
  <rect fill="#FFF" width="24" height="4.8" y="4.8"/>
  <rect fill="#C8102E" width="24" height="4.8" y="9.6"/>
  <rect fill="#FFF" width="24" height="4.8" y="14.4"/>
  <rect fill="#012169" width="24" height="4.8" y="19.2"/>
</svg>
